# xmcd
# 
# Track frame offsets:
#     150
#     18081
#     34858
#     50993
#     72119
#     95069
#     124867
#     146254
#     163900
#     182761
#     200564
#     220346
#     285034
# 
# Disc length: 4198
# 
# Revision: 4
# Processed by: cddbd v1.5.2PL0 Copyright (c) Steve Scherf et al.
# Submitted via: fre:ac v1.0.31
# 
DISCID=bf10640d
DTITLE=KEZIAH JONES - Nigerian Wood
DYEAR=2008
DGENRE=Funk
TTITLE0=Nigerian Wood
TTITLE1=African Androïd
TTITLE2=My Kinda Girl
TTITLE3=Long Distance Love
TTITLE4=Beautifulblackbutterfly
TTITLE5=Pimpin'
TTITLE6=Lagos vs New York
TTITLE7=1973 (Jokers Reparations)
TTITLE8=Unintended Consequenses
TTITLE9=Blue Is The Mind
TTITLE10=In Love Forever
TTITLE11=My Brother
TTITLE12=data
EXTD=
EXTT0=
EXTT1=
EXTT2=
EXTT3=
EXTT4=
EXTT5=
EXTT6=
EXTT7=
EXTT8=
EXTT9=
EXTT10=
EXTT11=
EXTT12=
PLAYORDER=
